<svg id="Layer_1" data-name="Layer 1" xmlns="http://www.w3.org/2000/svg" width="29.29" height="29.29" viewBox="0 0 29.29 29.29">
  <defs>
    <style>
      .cls-1 {
        fill: #b9bcea;
      }

      .cls-2 {
        fill: #4e54c8;
      }
    </style>
  </defs>
  <title>favicon</title>
  <g>
    <path class="cls-1" d="M29.69,13.69,18.31,2.31a3.28,3.28,0,0,0-4.62,0l-.63.63a41.75,41.75,0,0,1-.82,4.2,32.62,32.62,0,0,1-1.39,4.25l3.58-3.58a2.23,2.23,0,0,1,3.14,0l6.62,6.62a2.23,2.23,0,0,1,0,3.14l-6.62,6.62a2.23,2.23,0,0,1-3.14,0l-3.58-3.58a32.62,32.62,0,0,1,1.39,4.25,41.75,41.75,0,0,1,.82,4.2l.63.63a3.28,3.28,0,0,0,4.62,0L29.69,18.31A3.28,3.28,0,0,0,29.69,13.69Z" transform="translate(-1.36 -1.36)"/>
    <path class="cls-2" d="M9.22,19,7.81,17.57a2.21,2.21,0,0,1-.64-1.45,1,1,0,0,1,0-.24,2.21,2.21,0,0,1,.64-1.45L9.22,13a30.92,30.92,0,0,0,2.92-9.16L2.31,13.69a3.28,3.28,0,0,0,0,4.62l9.83,9.83A30.92,30.92,0,0,0,9.22,19Z" transform="translate(-1.36 -1.36)"/>
  </g>
</svg>
