<svg id="Layer_1" data-name="Layer 1" xmlns="http://www.w3.org/2000/svg" viewBox="0 0 486.46 76.37" height="86"><defs><style>.cls-1{fill:#4e54c8;}.cls-2{opacity:0.5;}.cls-3{fill:#b9bcea;}</style></defs><title>logo</title><path class="cls-1" d="M135.5,24a17.06,17.06,0,0,1,12.17-4.5q9.89,0,14.46,6a12.58,12.58,0,0,1,2.71,6.79h-8.27a10.18,10.18,0,0,0-2-3.95C153.07,26.83,150.88,26,148,26a8.28,8.28,0,0,0-7,3.35q-2.55,3.34-2.55,9.47c0,4.09.9,7.14,2.69,9.18A8.75,8.75,0,0,0,148,51.09a8,8,0,0,0,6.49-2.62,11.13,11.13,0,0,0,2-4.22h8.22a16,16,0,0,1-5.44,9.68,16.61,16.61,0,0,1-11.2,3.73q-8.44,0-13.28-5T130,38.74Q130,29.2,135.5,24Z" transform="translate(-4.54 -0.21)"/><path class="cls-1" d="M200.94,21.17a9.78,9.78,0,0,1,3.71,2.55,11.11,11.11,0,0,1,2,3.06,9.48,9.48,0,0,1,.73,3.83,10.2,10.2,0,0,1-1.42,5.1,7.9,7.9,0,0,1-4.7,3.55,7.25,7.25,0,0,1,3.88,2.87,11.22,11.22,0,0,1,1.14,5.7v2.44a17.37,17.37,0,0,0,.22,3.39A3.08,3.08,0,0,0,208,55.74v.91h-9.13q-.37-1.21-.54-1.95a16.32,16.32,0,0,1-.35-3.14L198,48.17c0-2.32-.47-3.87-1.31-4.64s-2.41-1.16-4.72-1.16h-8.08V56.65h-8.08V20.23H194.7A18.47,18.47,0,0,1,200.94,21.17Zm-17.1,5.39v9.78h8.91a10.34,10.34,0,0,0,4-.59q2.34-1,2.34-4.1c0-2.21-.75-3.69-2.27-4.45a8.77,8.77,0,0,0-3.82-.64Z" transform="translate(-4.54 -0.21)"/><path class="cls-1" d="M240,20.23h9.37L236.13,43V56.65h-8.27V43l-13.7-22.76h9.75l8.22,15.86Z" transform="translate(-4.54 -0.21)"/><path class="cls-1" d="M264.19,45.41a7.08,7.08,0,0,0,1.51,3.73q2.06,2.25,7.05,2.25a16.19,16.19,0,0,0,4.85-.6q3.54-1.12,3.54-4.22a3.08,3.08,0,0,0-1.73-2.79,19.9,19.9,0,0,0-5.5-1.71l-4.29-.86q-6.31-1.29-8.68-2.79-4-2.52-4-7.88a10.09,10.09,0,0,1,3.91-8.13q3.91-3.24,11.5-3.24a18.74,18.74,0,0,1,10.81,3,10.55,10.55,0,0,1,4.69,8.86h-8a5.19,5.19,0,0,0-3.19-4.67,11.77,11.77,0,0,0-4.93-.91,10,10,0,0,0-5.23,1.18,3.69,3.69,0,0,0-2,3.31,3.13,3.13,0,0,0,1.93,2.92,25.17,25.17,0,0,0,5.26,1.5l7,1.51a18.64,18.64,0,0,1,6.85,2.64A8.64,8.64,0,0,1,289.12,46a10.13,10.13,0,0,1-4.2,8.29q-4.19,3.3-11.85,3.3t-12.3-3.25a10.45,10.45,0,0,1-4.48-8.93Z" transform="translate(-4.54 -0.21)"/><path class="cls-1" d="M327.81,20.23v6.45H316v30h-8.33v-30h-11.9V20.23Z" transform="translate(-4.54 -0.21)"/><path class="cls-1" d="M342.74,45.41a7,7,0,0,0,1.5,3.73q2.06,2.25,7.05,2.25a16.3,16.3,0,0,0,4.86-.6c2.36-.75,3.53-2.16,3.53-4.22A3.06,3.06,0,0,0,358,43.78a19.78,19.78,0,0,0-5.5-1.71l-4.28-.86q-6.33-1.29-8.68-2.79-4-2.52-4-7.88a10.1,10.1,0,0,1,3.92-8.13q3.92-3.24,11.5-3.24a18.76,18.76,0,0,1,10.81,3,10.6,10.6,0,0,1,4.69,8.86h-7.95a5.2,5.2,0,0,0-3.2-4.67,11.72,11.72,0,0,0-4.92-.91,10.07,10.07,0,0,0-5.24,1.18A3.7,3.7,0,0,0,343.14,30a3.11,3.11,0,0,0,1.93,2.92,25,25,0,0,0,5.26,1.5l6.94,1.51a18.57,18.57,0,0,1,6.85,2.64A8.64,8.64,0,0,1,367.66,46a10.15,10.15,0,0,1-4.19,8.29q-4.2,3.3-11.85,3.3-7.83,0-12.3-3.25a10.43,10.43,0,0,1-4.48-8.93Z" transform="translate(-4.54 -0.21)"/><path class="cls-1" d="M408.08,53.41q-4.49,4.25-13,4.25t-13-4.25q-6-5.2-6-15,0-10,6-15,4.49-4.25,13-4.25t13,4.25q6,5,6,15Q414.07,48.2,408.08,53.41Zm-5.17-5.53q2.88-3.35,2.88-9.49t-2.88-9.47a9.77,9.77,0,0,0-7.81-3.35,9.92,9.92,0,0,0-7.84,3.33q-2.92,3.34-2.93,9.49t2.93,9.49a9.92,9.92,0,0,0,7.84,3.33A9.82,9.82,0,0,0,402.91,47.88Z" transform="translate(-4.54 -0.21)"/><path class="cls-1" d="M424.5,20.28h28.23v6.4h-20v8.38h17.54v6.32H432.72V56.65H424.5Z" transform="translate(-4.54 -0.21)"/><path class="cls-1" d="M491,20.23v6.45H479.15v30h-8.32v-30h-11.9V20.23Z" transform="translate(-4.54 -0.21)"/><g class="cls-2"><path class="cls-3" d="M6.4,42.9,28.66,65.17a6.41,6.41,0,0,0,9,0l1.24-1.24a75.53,75.53,0,0,1,1.61-8.21,60.21,60.21,0,0,1,2.71-8.32l-7,7a4.35,4.35,0,0,1-6.15,0L17.16,41.47a4.38,4.38,0,0,1,0-6.16L30.1,22.38a4.35,4.35,0,0,1,6.15,0l7,7a59.78,59.78,0,0,1-2.71-8.32,75.53,75.53,0,0,1-1.61-8.21l-1.24-1.24a6.41,6.41,0,0,0-9,0L6.4,33.88A6.38,6.38,0,0,0,6.4,42.9Z" transform="translate(-4.54 -0.21)"/><path class="cls-1" d="M46.44,32.57l2.75,2.74a4.38,4.38,0,0,1,1.26,2.84v.48a4.38,4.38,0,0,1-1.26,2.84l-2.75,2.74c-3.26,6-4.92,13.22-5.72,17.92L60,42.9a6.4,6.4,0,0,0,0-9L40.72,14.65C41.52,19.36,43.18,26.6,46.44,32.57Z" transform="translate(-4.54 -0.21)"/></g><path class="cls-3" d="M108.47,32.37,78.79,2.69a8.54,8.54,0,0,0-12,0L65.1,4.34A103.8,103.8,0,0,1,63,15.28a79.49,79.49,0,0,1-3.62,11.1L68.67,17a5.82,5.82,0,0,1,8.21,0L94.12,34.29a5.82,5.82,0,0,1,0,8.21L76.88,59.74a5.82,5.82,0,0,1-8.21,0l-9.34-9.33A79.34,79.34,0,0,1,63,61.5,104.29,104.29,0,0,1,65.1,72.44l1.65,1.65a8.54,8.54,0,0,0,12,0l29.68-29.68A8.54,8.54,0,0,0,108.47,32.37Z" transform="translate(-4.54 -0.21)"/><path class="cls-1" d="M55.08,46.16,51.42,42.5a5.8,5.8,0,0,1-1.68-3.78c0-.22,0-.44,0-.65a5.76,5.76,0,0,1,1.68-3.78l3.66-3.66c4.35-8,6.56-17.62,7.62-23.89L37.07,32.37a8.54,8.54,0,0,0,0,12L62.7,70C61.64,63.77,59.43,54.11,55.08,46.16Z" transform="translate(-4.54 -0.21)"/></svg>
